<svg width="48" height="49" viewBox="0 0 48 49" fill="none" xmlns="http://www.w3.org/2000/svg">
<ellipse cx="23.9156" cy="24.7896" rx="23.9156" ry="24.2105" fill="#4CD964"/>
<path d="M26.1778 19.4149L29.7782 15.7701C30.6196 14.9183 31.9839 14.9183 32.8253 15.7701C33.6667 16.6219 33.6667 18.003 32.8253 18.8547L29.2249 22.4995L31.1729 32.3124C31.2447 32.6734 31.1327 33.0465 30.8761 33.3073L30.1587 34.0336C29.6043 34.5948 28.6618 34.3945 28.377 33.655L25.5245 26.2455L21.8219 29.9937L22.0198 32.3818C22.047 32.7042 21.9317 33.0234 21.7056 33.2523L20.5251 34.4474L18.2194 30.5561L14.3755 28.222L15.556 27.0269C15.7822 26.798 16.0963 26.6813 16.4159 26.7088L18.7749 26.9091L22.4774 23.1609L15.1593 20.2732C14.4277 19.9849 14.2298 19.0319 14.7842 18.4696L15.5017 17.7433C15.7593 17.4824 16.1278 17.3702 16.4844 17.4428L26.1778 19.4149V19.4149Z" stroke="white" stroke-width="1.5" stroke-linecap="round" stroke-linejoin="round"/>
</svg>
