<svg width="49" height="49" viewBox="0 0 49 49" fill="none" xmlns="http://www.w3.org/2000/svg">
<ellipse cx="24.2212" cy="24.7516" rx="23.9156" ry="24.2105" fill="#5047D7"/>
<path d="M29.6572 34.6558H18.7864C17.5852 34.6558 16.6123 33.6708 16.6123 32.4548V21.4501C16.6123 20.234 17.5852 19.2491 18.7864 19.2491H29.6572C30.8584 19.2491 31.8313 20.234 31.8313 21.4501V32.4548C31.8313 33.6708 30.8584 34.6558 29.6572 34.6558Z" stroke="white" stroke-width="1.5" stroke-linecap="round" stroke-linejoin="round"/>
<path d="M22.0474 22.5505H26.3956" stroke="white" stroke-width="1.5" stroke-linecap="round" stroke-linejoin="round"/>
<path d="M19.8735 34.6558V35.7572" stroke="white" stroke-width="1.5" stroke-linecap="round" stroke-linejoin="round"/>
<path d="M28.5698 34.6558V35.7572" stroke="white" stroke-width="1.5" stroke-linecap="round" stroke-linejoin="round"/>
<path d="M28.5701 19.2491V15.9477C28.5701 14.7317 27.5972 13.7467 26.396 13.7467H22.0477C20.8465 13.7467 19.8735 14.7317 19.8735 15.9477V19.2491" stroke="white" stroke-width="1.5" stroke-linecap="round" stroke-linejoin="round"/>
<path d="M24.2217 25.852V31.3543" stroke="white" stroke-width="1.5" stroke-linecap="round" stroke-linejoin="round"/>
<path d="M19.8735 25.852V31.3543" stroke="white" stroke-width="1.5" stroke-linecap="round" stroke-linejoin="round"/>
<path d="M28.5698 25.852V31.3543" stroke="white" stroke-width="1.5" stroke-linecap="round" stroke-linejoin="round"/>
</svg>
