<svg width="49" height="49" viewBox="0 0 49 49" fill="none" xmlns="http://www.w3.org/2000/svg">
<ellipse cx="24.2212" cy="24.7851" rx="23.9156" ry="24.2105" fill="#FFB801"/>
<g clip-path="url(#clip0_1959_146)">
<path d="M25.8379 26.3075L27.2926 24.8223L33.8439 31.5141L32.3922 32.9962L25.8379 26.3075ZM30.2051 20.3563L33.1145 17.3858C29.0962 13.2833 22.5856 13.2729 18.5674 17.3651C22.5653 16.0149 27.021 17.1054 30.2051 20.3563ZM18.5368 17.3962C14.5287 21.4987 14.5389 28.1458 18.5572 32.2484L21.4666 29.2779C18.2825 26.0271 17.2144 21.478 18.5368 17.3962ZM18.5572 17.3755L18.547 17.3858C18.1604 20.5121 19.7372 24.5315 22.9213 27.7927L28.7504 21.8415C25.5663 18.5906 21.6192 16.9808 18.5572 17.3755Z" fill="white"/>
</g>
<defs>
<clipPath id="clip0_1959_146">
<rect width="24.4148" height="24.9266" fill="white" transform="translate(12.4839 11.1853)"/>
</clipPath>
</defs>
</svg>
