<svg width="16" height="29" viewBox="0 0 16 29" fill="none" xmlns="http://www.w3.org/2000/svg">
<path d="M10.4433 28.4918C10.2965 28.4974 10.2025 28.5087 10.1085 28.5087C8.09968 28.5087 6.09672 28.5031 4.08789 28.5144C3.80595 28.5144 3.72959 28.4409 3.72959 28.1695C3.73547 23.669 3.73547 19.1628 3.73547 14.6622C3.73547 14.5435 3.73547 14.4248 3.73547 14.2721C2.64295 14.2721 1.5798 14.2721 0.499023 14.2721C0.499023 12.6664 0.499023 11.0889 0.499023 9.46626C0.610625 9.46626 0.716352 9.46626 0.816206 9.46626C1.69727 9.46626 2.57834 9.46061 3.4594 9.47192C3.6826 9.47192 3.74134 9.40973 3.74134 9.20053C3.72959 7.9397 3.72959 6.67322 3.74134 5.41239C3.74722 4.53038 3.89406 3.67098 4.31697 2.87377C4.92197 1.74864 5.87939 1.01928 7.08939 0.566962C8.07618 0.193802 9.11584 0.0581077 10.1614 0.0411459C11.8648 0.0185301 13.5682 0.029838 15.2715 0.0241841C15.4301 0.0241841 15.5594 0.0185301 15.5594 0.23338C15.5535 1.78821 15.5535 3.34305 15.5535 4.89788C15.5535 4.91484 15.5476 4.9318 15.5241 5.00531C15.4243 5.00531 15.3127 5.00531 15.2011 5.00531C14.1438 5.00531 13.0865 4.99965 12.0292 5.00531C11.4184 5.00531 10.925 5.24277 10.6136 5.75728C10.5197 5.90994 10.4609 6.10782 10.4609 6.28875C10.4433 7.24992 10.4609 8.21109 10.4492 9.17226C10.4492 9.39842 10.5197 9.46061 10.7487 9.46061C12.2172 9.4493 13.6856 9.45496 15.1541 9.45496C15.2715 9.45496 15.3831 9.45496 15.5829 9.45496C15.3773 11.072 15.1776 12.6551 14.972 14.2552C13.4448 14.2552 11.9587 14.2552 10.4433 14.2552C10.4433 19.0101 10.4433 23.7368 10.4433 28.4918Z" fill="white"/>
</svg>
