<svg width="30" height="30" viewBox="0 0 30 30" fill="none" xmlns="http://www.w3.org/2000/svg">
<circle cx="15" cy="15" r="15" fill="#5047D7"/>
<g clip-path="url(#clip0_1959_297)">
<path d="M17.9167 16.6667H17.2583L17.025 16.4417C17.8417 15.4917 18.3333 14.2583 18.3333 12.9167C18.3333 9.925 15.9083 7.5 12.9167 7.5C9.925 7.5 7.5 9.925 7.5 12.9167C7.5 15.9083 9.925 18.3333 12.9167 18.3333C14.2583 18.3333 15.4917 17.8417 16.4417 17.025L16.6667 17.2583V17.9167L20.8333 22.075L22.075 20.8333L17.9167 16.6667V16.6667ZM12.9167 16.6667C10.8417 16.6667 9.16667 14.9917 9.16667 12.9167C9.16667 10.8417 10.8417 9.16667 12.9167 9.16667C14.9917 9.16667 16.6667 10.8417 16.6667 12.9167C16.6667 14.9917 14.9917 16.6667 12.9167 16.6667Z" fill="white"/>
</g>
<defs>
<clipPath id="clip0_1959_297">
<rect width="20" height="20" fill="white" transform="translate(5 5)"/>
</clipPath>
</defs>
</svg>
