<svg width="30" height="29" viewBox="0 0 30 29" fill="none" xmlns="http://www.w3.org/2000/svg">
<path d="M29.4561 14.2723C29.4561 16.2399 29.415 18.2131 29.4679 20.1807C29.556 23.6635 27.2828 26.3548 24.3871 27.5534C23.2241 28.034 22.0023 28.2885 20.7395 28.2885C16.7864 28.2941 12.8275 28.345 8.87445 28.2715C5.89645 28.215 3.44709 27.0163 1.69084 24.653C0.768657 23.4091 0.328125 21.9956 0.328125 20.4634C0.328125 16.4095 0.328125 12.3613 0.328125 8.30742C0.328125 4.99986 2.00215 2.6874 4.97427 1.18345C6.2665 0.533246 7.67033 0.256203 9.1329 0.250549C12.9685 0.250549 16.8099 0.227933 20.6455 0.261857C23.6235 0.284472 26.1081 1.38134 27.9407 3.68815C28.9627 4.97724 29.4561 6.45858 29.4561 8.08691C29.4561 10.1449 29.4561 12.2086 29.4561 14.2723ZM2.49554 14.2723C2.49554 16.3473 2.49554 18.4167 2.49554 20.4917C2.49554 21.4189 2.71875 22.2896 3.21802 23.0755C4.52787 25.1392 6.50732 26.1456 8.96256 26.1852C12.9039 26.2417 16.851 26.2078 20.7982 26.1965C21.7674 26.1965 22.7072 26.0043 23.5824 25.6028C25.9671 24.506 27.3004 22.7589 27.2887 20.1355C27.2652 16.1212 27.2828 12.1069 27.2828 8.09257C27.2828 6.95612 26.948 5.9158 26.249 4.99986C24.8981 3.24148 23.0302 2.37643 20.7982 2.35382C16.8628 2.30858 12.9273 2.33685 8.99193 2.34251C8.15198 2.34251 7.3414 2.50647 6.55431 2.78917C4.39277 3.56376 2.38394 5.52568 2.47792 8.41484C2.54841 10.3711 2.49554 12.3217 2.49554 14.2723Z" fill="white"/>
<path d="M14.9245 20.2656C11.1359 20.2656 8.08157 17.3594 8.07569 13.7409C8.06982 10.1789 11.1477 7.26148 14.9128 7.26148C18.6896 7.25583 21.7557 10.1676 21.7616 13.7579C21.7616 17.3425 18.7013 20.2599 14.9245 20.2656ZM14.9245 18.1736C17.5031 18.1736 19.5941 16.1891 19.5883 13.7466C19.5824 11.3267 17.4913 9.34779 14.9245 9.34779C12.3459 9.34779 10.2431 11.321 10.2431 13.7579C10.249 16.2004 12.3459 18.1792 14.9245 18.1736Z" fill="white"/>
<path d="M22.5543 5.28259C23.3473 5.28259 23.9934 5.9328 23.9934 6.73C23.9875 7.5272 23.3355 8.17175 22.5426 8.1661C21.7614 8.16045 21.1211 7.5159 21.1211 6.73565C21.1153 5.93845 21.7614 5.28259 22.5543 5.28259Z" fill="white"/>
</svg>
