<svg width="20" height="20" viewBox="0 0 20 20" fill="none" xmlns="http://www.w3.org/2000/svg">
<path d="M4.07012 9.02506C5.60799 11.9463 8.08566 14.3308 11.108 15.8275L13.4575 13.5566C13.7458 13.2779 14.173 13.185 14.5468 13.3089C15.7429 13.6908 17.0352 13.8973 18.3594 13.8973C18.9468 13.8973 19.4274 14.3618 19.4274 14.9295V18.532C19.4274 19.0998 18.9468 19.5643 18.3594 19.5643C8.33129 19.5643 0.204102 11.7089 0.204102 2.01613C0.204102 1.4484 0.684684 0.983887 1.27206 0.983887H5.00993C5.59731 0.983887 6.07789 1.4484 6.07789 2.01613C6.07789 3.30643 6.29148 4.54513 6.68663 5.70124C6.8041 6.06252 6.71866 6.4651 6.41964 6.75413L4.07012 9.02506Z" fill="white"/>
</svg>
