<svg width="49" height="49" viewBox="0 0 49 49" fill="none" xmlns="http://www.w3.org/2000/svg">
<ellipse cx="24.2212" cy="24.7184" rx="23.9156" ry="24.2105" fill="#4CD964"/>
<g clip-path="url(#clip0_1959_122)">
<path d="M15.5249 21.4169C15.5249 18.1155 19.8732 14.8141 24.2215 14.8141C28.5698 14.8141 32.918 18.1155 32.918 21.4169C32.918 21.4169 28.5698 21.4169 24.2215 21.4169C19.8732 21.4169 15.5249 21.4169 15.5249 21.4169Z" stroke="white" stroke-width="1.5" stroke-linecap="round" stroke-linejoin="round"/>
<path d="M24.2217 28.0198V21.4169" stroke="white" stroke-width="1.5" stroke-linecap="round" stroke-linejoin="round"/>
<path d="M20.9604 21.3619C20.9604 17.7766 22.4204 14.8691 24.2217 14.8691C26.0229 14.8691 27.4829 17.7766 27.4829 21.3619" stroke="white" stroke-width="1.5" stroke-linecap="round" stroke-linejoin="round"/>
<path d="M18.8841 31.3212L17.6992 34.6227" stroke="white" stroke-width="1.5" stroke-linecap="round" stroke-linejoin="round"/>
<path d="M28.4722 31.3212L29.6571 34.6227" stroke="white" stroke-width="1.5" stroke-linecap="round" stroke-linejoin="round"/>
<path d="M16.0686 31.3212H28.1329C29.3091 31.3212 30.4538 30.935 31.3941 30.2208L33.353 28.734C33.915 28.3081 34.1433 27.5653 33.9216 26.8918C33.5694 25.8233 32.2866 25.4172 31.3963 26.0929L29.4374 27.5796C29.0613 27.8657 28.6036 28.0198 28.1329 28.0198H16.0686C15.1685 28.0198 14.438 28.7593 14.438 29.6705C14.438 30.5817 15.1685 31.3212 16.0686 31.3212V31.3212Z" stroke="white" stroke-width="1.5" stroke-linecap="round" stroke-linejoin="round"/>
</g>
<defs>
<clipPath id="clip0_1959_122">
<rect width="26.0897" height="26.4114" fill="white" transform="translate(11.1768 11.5127)"/>
</clipPath>
</defs>
</svg>
