<svg width="30" height="17" viewBox="0 0 30 17" fill="none" xmlns="http://www.w3.org/2000/svg">
<path d="M1.75317 0.143066C2.73996 0.143066 4.24365 0.143066 5.08947 0.143066C5.51238 0.143066 5.84131 0.414456 5.98228 0.776308C6.40519 1.95233 7.34499 4.53053 8.42577 6.29456C9.88246 8.60136 10.8223 9.46076 11.4331 9.3703C12.044 9.2346 11.856 7.69673 11.856 6.47548C11.856 5.25423 11.997 3.17358 11.3861 2.22372L10.4463 0.912003C10.2114 0.595382 10.4463 0.188298 10.8223 0.188298H16.1791C16.696 0.188298 17.1189 0.595382 17.1189 1.09293V7.6515C17.1189 7.6515 17.3539 8.82752 18.6696 7.60627C19.9853 6.38502 21.395 4.12344 22.5698 1.81663L23.0397 0.731076C23.1807 0.414456 23.5096 0.188298 23.8855 0.188298H27.3628C28.0206 0.188298 28.4905 0.82154 28.2556 1.40955L27.8797 2.35941C27.8797 2.35941 26.6109 4.80191 25.2952 6.52071C23.9795 8.28474 23.6976 8.69183 23.8855 9.14414C24.0735 9.59646 27.4568 12.627 28.3026 14.0744C28.5375 14.4815 28.7255 14.8433 28.9135 15.1599C29.2424 15.7479 28.7725 16.5169 28.0676 16.5169H24.1205C23.7915 16.5169 23.4626 16.336 23.3216 16.0646L22.9457 15.4766C22.9457 15.4766 20.5492 12.7627 19.0925 11.9033C17.5888 11.0891 17.6358 12.2651 17.6358 12.2651V14.6624C17.6358 15.6575 16.79 16.4716 15.7562 16.4716H14.8164C14.8164 16.4716 9.64751 16.4717 5.51238 10.5463C2.27006 5.9327 1.18929 2.94742 0.813367 1.22862C0.719387 0.685845 1.1423 0.143066 1.75317 0.143066Z" fill="white"/>
</svg>
